<?xml version="1.0" standalone="no"?>
<!DOCTYPE svg PUBLIC "-//W3C//DTD SVG 20010904//EN"
 "http://www.w3.org/TR/2001/REC-SVG-20010904/DTD/svg10.dtd">
<svg version="1.0" xmlns="http://www.w3.org/2000/svg"
 width="300.000000pt" height="300.000000pt" viewBox="0 0 300.000000 300.000000"
 preserveAspectRatio="xMidYMid meet">
<metadata>
Created by potrace 1.11, written by Peter Selinger 2001-2013
</metadata>
<g transform="translate(0.000000,300.000000) scale(0.100000,-0.100000)"
fill="#000000" stroke="none">
<path d="M0 1500 l0 -1500 1500 0 1500 0 0 1500 0 1500 -1500 0 -1500 0 0
-1500z m1465 1416 c149 -5 269 -4 298 2 26 5 47 6 47 2 0 -4 64 -6 143 -3 78
3 260 8 405 10 l262 4 0 -408 c0 -224 2 -622 5 -883 3 -261 7 -706 10 -987 l5
-513 -92 -2 c-51 -1 -106 -3 -123 -5 -58 -5 -1523 -9 -1807 -5 l-286 5 5 1356
c3 798 9 1357 14 1359 5 2 9 19 9 38 l0 33 158 3 c245 5 673 2 947 -6z m232 8
c-3 -3 -12 -4 -19 -1 -8 3 -5 6 6 6 11 1 17 -2 13 -5z"/>
<path d="M2158 2913 c7 -3 16 -2 19 1 4 3 -2 6 -13 5 -11 0 -14 -3 -6 -6z"/>
<path d="M1105 2890 l-140 -6 185 -1 c102 -1 181 0 175 2 -24 8 -89 10 -220 5z"/>
<path d="M394 2600 c0 -162 2 -229 3 -147 2 81 2 213 0 295 -1 81 -3 14 -3
-148z"/>
<path d="M1358 2883 c6 -2 18 -2 25 0 6 3 1 5 -13 5 -14 0 -19 -2 -12 -5z"/>
<path d="M588 2863 l-178 -3 1 -263 c1 -157 5 -250 10 -232 4 18 6 -30 4 -115
-10 -316 -13 -494 -10 -475 2 11 7 46 10 78 4 34 11 55 16 51 7 -4 10 -86 8
-217 -1 -117 -1 -488 -1 -824 l1 -613 25 0 c14 0 27 -3 29 -8 5 -6 2037 -17
2037 -10 0 2 3 408 5 903 3 495 7 1085 9 1311 l4 410 -521 -1 c-468 -2 -486
-1 -167 4 269 5 178 6 -375 6 -401 0 -810 -1 -907 -2z m873 -153 c34 -12 86
-37 116 -56 29 -19 57 -34 60 -34 4 0 34 26 66 58 47 47 59 54 67 42 14 -22 8
-442 -6 -447 -6 -2 -23 30 -38 71 -86 236 -235 356 -440 356 -212 0 -350 -139
-397 -400 -21 -119 -18 -578 6 -699 33 -174 113 -295 233 -351 58 -28 216 -42
208 -19 -18 51 -126 420 -126 428 0 7 38 11 108 11 l108 0 43 -159 c24 -88 47
-164 51 -171 4 -7 14 5 25 32 15 33 20 78 23 201 l4 157 -121 0 c-101 0 -121
2 -121 15 0 13 43 15 330 15 287 0 330 -2 330 -15 0 -12 -18 -15 -99 -15 l-98
0 -5 -108 c-4 -95 -8 -115 -38 -180 -34 -75 -105 -154 -168 -186 -18 -9 -32
-21 -32 -27 0 -21 144 -529 150 -529 3 0 116 217 251 482 l245 483 107 3 c59
1 107 0 107 -3 0 -6 -732 -1363 -757 -1403 -8 -13 -17 -22 -19 -19 -2 2 -66
213 -143 468 l-138 464 -87 7 c-171 13 -298 71 -420 194 -153 154 -235 356
-236 582 0 234 81 434 240 592 86 86 201 151 310 175 84 19 220 12 301 -15z"/>
<path d="M468 233 c6 -2 18 -2 25 0 6 3 1 5 -13 5 -14 0 -19 -2 -12 -5z"/>
</g>
</svg>
